<svg xmlns="http://www.w3.org/2000/svg"  viewBox="0 0 64 64" width="64px" height="64px"><radialGradient id="wUdpCNqJm~33NDYZgWFvha" cx="31.5" cy="31.5" r="31.004" gradientUnits="userSpaceOnUse"><stop offset="0" stop-color="#eed7a2"/><stop offset=".106" stop-color="#f1dcab"/><stop offset=".437" stop-color="#f8e8c3"/><stop offset=".744" stop-color="#fcefd2"/><stop offset="1" stop-color="#fef2d7"/></radialGradient><path fill="url(#wUdpCNqJm~33NDYZgWFvha)" d="M59,26c2.335,0,4.22-2.028,3.979-4.41c-0.21-2.075-2.082-3.59-4.168-3.59h-0.704	c-0.996,0-1.92-0.681-2.08-1.664C55.824,15.083,56.785,14,58,14l0.357,0c1.308,0,2.5-0.941,2.63-2.242	C61.137,10.261,59.966,9,58.5,9h-15C42.672,9,42,8.328,42,7.5S42.672,6,43.5,6l3.857,0c1.308,0,2.499-0.941,2.63-2.242	C50.137,2.261,48.966,1,47.5,1L14.643,1c-1.308,0-2.499,0.941-2.63,2.242C11.863,4.739,13.034,6,14.5,6l3.393,0	c0.996,0,1.92,0.681,2.08,1.664C20.176,8.917,19.215,10,18,10L5.189,10c-2.086,0-3.958,1.514-4.168,3.59C0.78,15.972,2.665,18,5,18	h0.302c1.895,0,3.594,1.419,3.693,3.312C9.101,23.33,7.495,25,5.5,25H4.189c-2.086,0-3.958,1.514-4.168,3.59	C-0.22,30.972,1.665,33,4,33h17v11H5.132c-1.451,0-2.789,0.972-3.071,2.395C1.681,48.307,3.152,50,4.999,50H12c1.105,0,2,0.895,2,2	v0c0,1.105-0.895,2-2,2l-2.811,0c-2.086,0-3.958,1.514-4.168,3.59C4.78,59.972,6.665,62,9,62l40.811,0	c2.086,0,3.958-1.514,4.168-3.59C54.22,56.028,52.335,54,50,54c0,0,0,0-0.001,0h-9.893c-0.996,0-1.92-0.681-2.08-1.664	C37.824,51.083,38.785,50,40,50l18.386,0c1.67,0,3.195-1.122,3.537-2.757C62.392,44.997,60.668,43,58.5,43l-8.857,0	c-1.308,0-2.499-0.941-2.63-2.242C46.863,39.261,48.034,38,49.5,38h10.369c1.451,0,2.789-0.972,3.071-2.395	C63.319,33.693,61.848,32,60,32H41v-6H59z"/><linearGradient id="wUdpCNqJm~33NDYZgWFvhb" x1="32" x2="32" y1="46" y2="15.021" gradientUnits="userSpaceOnUse"><stop offset="0" stop-color="#155cde"/><stop offset=".228" stop-color="#1b73e3"/><stop offset=".743" stop-color="#29a3ec"/><stop offset="1" stop-color="#2eb5f0"/></linearGradient><path fill="url(#wUdpCNqJm~33NDYZgWFvhb)" d="M49.651,25.233c-0.427-0.089-0.749-0.421-0.817-0.852C47.817,17.932,42.235,13,35.5,13	c-4.852,0-9.101,2.562-11.48,6.405c-0.264,0.426-0.818,0.558-1.269,0.34C21.768,19.269,20.666,19,19.5,19	c-3.794,0-6.922,2.819-7.422,6.476c-0.045,0.333-0.238,0.619-0.534,0.778C8.247,28.025,6,31.496,6,35.5	c0,5.63,4.435,10.212,10,10.475V46c0,0,31.331,0,31.5,0C53.299,46,58,41.299,58,35.5C58,30.44,54.417,26.226,49.651,25.233z"/></svg>